<svg xmlns="http://www.w3.org/2000/svg" xmlns:xlink="http://www.w3.org/1999/xlink" width="500" zoomAndPan="magnify" viewBox="0 0 375 374.999991" height="500" preserveAspectRatio="xMidYMid meet" version="1.0"><defs><g/><clipPath id="af0a6541b1"><path d="M 5 124.726562 L 124 124.726562 L 124 239.761719 L 5 239.761719 Z M 5 124.726562 " clip-rule="nonzero"/></clipPath><clipPath id="e8a2d3fa7e"><path d="M 5.117188 124.726562 L 117.984375 190.253906 C 117.984375 190.253906 128.371094 195.390625 121.683594 208.640625 L 111.335938 229.058594 C 111.335938 229.058594 106.242188 239.527344 95.65625 239.527344 L 15.476562 239.386719 L 38.757812 206.761719 L 35.714844 223.296875 L 98.5625 223.527344 C 98.5625 223.527344 102.742188 223.605469 105.128906 219.03125 L 110.300781 208.882812 C 110.300781 208.882812 112.648438 204.785156 108.472656 201.28125 L 32.136719 171.386719 C 32.136719 171.386719 23.417969 167.605469 18.921875 157.21875 Z M 5.117188 124.726562 " clip-rule="nonzero"/></clipPath><clipPath id="a18f63a97e"><path d="M 1.167969 216.613281 L 19.40625 216.613281 L 19.40625 236.722656 L 1.167969 236.722656 Z M 1.167969 216.613281 " clip-rule="nonzero"/></clipPath><clipPath id="463ea29b69"><path d="M 1.167969 216.804688 L 13.476562 236.671875 L 19.199219 228.746094 Z M 1.167969 216.804688 " clip-rule="nonzero"/></clipPath><clipPath id="fad4d1a86f"><path d="M 2.804688 191.363281 L 27.355469 191.363281 L 27.355469 226.667969 L 2.804688 226.667969 Z M 2.804688 191.363281 " clip-rule="nonzero"/></clipPath><clipPath id="1691cbd99a"><path d="M 2.878906 214.652344 L 20.671875 226.632812 L 27.238281 217.480469 L 12.394531 211.46875 L 27.238281 191.566406 Z M 2.878906 214.652344 " clip-rule="nonzero"/></clipPath><clipPath id="d1cbf84b17"><path d="M 18.238281 193.703125 L 31.796875 193.703125 L 31.796875 210.535156 L 18.238281 210.535156 Z M 18.238281 193.703125 " clip-rule="nonzero"/></clipPath><clipPath id="9452dad613"><path d="M 29.070312 193.800781 L 18.28125 208.886719 L 22.0625 210.402344 L 31.578125 197.027344 Z M 29.070312 193.800781 " clip-rule="nonzero"/></clipPath><clipPath id="4f809161b1"><path d="M 25.019531 199.78125 L 36.941406 199.78125 L 36.941406 213.574219 L 25.019531 213.574219 Z M 25.019531 199.78125 " clip-rule="nonzero"/></clipPath><clipPath id="527efd8a81"><path d="M 33.644531 199.851562 L 25.167969 211.632812 L 29.984375 213.503906 L 36.769531 203.953125 Z M 33.644531 199.851562 " clip-rule="nonzero"/></clipPath></defs><g clip-path="url(#af0a6541b1)"><g clip-path="url(#e8a2d3fa7e)"><path fill="#f68b20" d="M 0 123.558594 L 125.089844 123.558594 L 125.089844 240.699219 L 0 240.699219 Z M 0 123.558594 " fill-opacity="1" fill-rule="nonzero"/></g></g><g clip-path="url(#a18f63a97e)"><g clip-path="url(#463ea29b69)"><path fill="#f68b20" d="M 0 123.558594 L 125.089844 123.558594 L 125.089844 240.699219 L 0 240.699219 Z M 0 123.558594 " fill-opacity="1" fill-rule="nonzero"/></g></g><g clip-path="url(#fad4d1a86f)"><g clip-path="url(#1691cbd99a)"><path fill="#626263" d="M 0 123.558594 L 125.089844 123.558594 L 125.089844 240.699219 L 0 240.699219 Z M 0 123.558594 " fill-opacity="1" fill-rule="nonzero"/></g></g><g clip-path="url(#d1cbf84b17)"><g clip-path="url(#9452dad613)"><path fill="#f68b20" d="M 0 123.558594 L 125.089844 123.558594 L 125.089844 240.699219 L 0 240.699219 Z M 0 123.558594 " fill-opacity="1" fill-rule="nonzero"/></g></g><g clip-path="url(#4f809161b1)"><g clip-path="url(#527efd8a81)"><path fill="#626263" d="M 0 123.558594 L 125.089844 123.558594 L 125.089844 240.699219 L 0 240.699219 Z M 0 123.558594 " fill-opacity="1" fill-rule="nonzero"/></g></g><g fill="#626263" fill-opacity="1"><g transform="translate(137.152831, 212.709566)"><g><path d="M 2.09375 -17.703125 L 10.140625 -17.703125 C 12.066406 -17.703125 13.765625 -17.332031 15.234375 -16.59375 C 16.710938 -15.863281 17.859375 -14.832031 18.671875 -13.5 C 19.492188 -12.175781 19.90625 -10.628906 19.90625 -8.859375 C 19.90625 -7.085938 19.492188 -5.535156 18.671875 -4.203125 C 17.859375 -2.867188 16.710938 -1.832031 15.234375 -1.09375 C 13.765625 -0.363281 12.066406 0 10.140625 0 L 2.09375 0 Z M 9.9375 -3.359375 C 11.707031 -3.359375 13.117188 -3.851562 14.171875 -4.84375 C 15.234375 -5.832031 15.765625 -7.171875 15.765625 -8.859375 C 15.765625 -10.546875 15.234375 -11.878906 14.171875 -12.859375 C 13.117188 -13.847656 11.707031 -14.34375 9.9375 -14.34375 L 6.203125 -14.34375 L 6.203125 -3.359375 Z M 9.9375 -3.359375 "/></g></g></g><g fill="#626263" fill-opacity="1"><g transform="translate(158.791031, 212.709566)"><g><path d="M 15.8125 -3.28125 L 15.8125 0 L 2.09375 0 L 2.09375 -17.703125 L 15.484375 -17.703125 L 15.484375 -14.421875 L 6.171875 -14.421875 L 6.171875 -10.578125 L 14.390625 -10.578125 L 14.390625 -7.390625 L 6.171875 -7.390625 L 6.171875 -3.28125 Z M 15.8125 -3.28125 "/></g></g></g><g fill="#626263" fill-opacity="1"><g transform="translate(176.511197, 212.709566)"><g><path d="M 19.125 -17.703125 L 11.453125 0 L 7.40625 0 L -0.234375 -17.703125 L 4.203125 -17.703125 L 9.59375 -5.0625 L 15.046875 -17.703125 Z M 19.125 -17.703125 "/></g></g></g><g fill="#626263" fill-opacity="1"><g transform="translate(196.127187, 212.709566)"><g/></g></g><g fill="#626263" fill-opacity="1"><g transform="translate(204.03961, 212.709566)"><g><path d="M 10.578125 0.296875 C 8.773438 0.296875 7.140625 -0.09375 5.671875 -0.875 C 4.210938 -1.65625 3.066406 -2.738281 2.234375 -4.125 C 1.398438 -5.519531 0.984375 -7.097656 0.984375 -8.859375 C 0.984375 -10.609375 1.398438 -12.175781 2.234375 -13.5625 C 3.066406 -14.957031 4.210938 -16.046875 5.671875 -16.828125 C 7.140625 -17.617188 8.78125 -18.015625 10.59375 -18.015625 C 12.132812 -18.015625 13.523438 -17.742188 14.765625 -17.203125 C 16.003906 -16.660156 17.046875 -15.882812 17.890625 -14.875 L 15.25 -12.453125 C 14.050781 -13.828125 12.566406 -14.515625 10.796875 -14.515625 C 9.703125 -14.515625 8.722656 -14.273438 7.859375 -13.796875 C 7.003906 -13.316406 6.335938 -12.644531 5.859375 -11.78125 C 5.378906 -10.925781 5.140625 -9.953125 5.140625 -8.859375 C 5.140625 -7.753906 5.378906 -6.769531 5.859375 -5.90625 C 6.335938 -5.050781 7.003906 -4.382812 7.859375 -3.90625 C 8.722656 -3.425781 9.703125 -3.1875 10.796875 -3.1875 C 12.566406 -3.1875 14.050781 -3.882812 15.25 -5.28125 L 17.890625 -2.859375 C 17.046875 -1.828125 16 -1.039062 14.75 -0.5 C 13.5 0.03125 12.109375 0.296875 10.578125 0.296875 Z M 10.578125 0.296875 "/></g></g></g><g fill="#626263" fill-opacity="1"><g transform="translate(223.327001, 212.709566)"><g><path d="M 13.375 0 L 9.96875 -4.9375 L 6.203125 -4.9375 L 6.203125 0 L 2.09375 0 L 2.09375 -17.703125 L 9.765625 -17.703125 C 11.335938 -17.703125 12.695312 -17.441406 13.84375 -16.921875 C 15 -16.398438 15.890625 -15.65625 16.515625 -14.6875 C 17.140625 -13.726562 17.453125 -12.59375 17.453125 -11.28125 C 17.453125 -9.96875 17.132812 -8.832031 16.5 -7.875 C 15.875 -6.925781 14.976562 -6.195312 13.8125 -5.6875 L 17.78125 0 Z M 13.3125 -11.28125 C 13.3125 -12.28125 12.988281 -13.046875 12.34375 -13.578125 C 11.707031 -14.109375 10.769531 -14.375 9.53125 -14.375 L 6.203125 -14.375 L 6.203125 -8.203125 L 9.53125 -8.203125 C 10.769531 -8.203125 11.707031 -8.46875 12.34375 -9 C 12.988281 -9.539062 13.3125 -10.300781 13.3125 -11.28125 Z M 13.3125 -11.28125 "/></g></g></g><g fill="#626263" fill-opacity="1"><g transform="translate(242.664942, 212.709566)"><g><path d="M 15.8125 -3.28125 L 15.8125 0 L 2.09375 0 L 2.09375 -17.703125 L 15.484375 -17.703125 L 15.484375 -14.421875 L 6.171875 -14.421875 L 6.171875 -10.578125 L 14.390625 -10.578125 L 14.390625 -7.390625 L 6.171875 -7.390625 L 6.171875 -3.28125 Z M 15.8125 -3.28125 "/></g></g></g><g fill="#626263" fill-opacity="1"><g transform="translate(260.385104, 212.709566)"><g><path d="M 13.765625 -3.796875 L 5.546875 -3.796875 L 3.96875 0 L -0.234375 0 L 7.671875 -17.703125 L 11.71875 -17.703125 L 19.625 0 L 15.328125 0 Z M 12.46875 -6.90625 L 9.65625 -13.6875 L 6.859375 -6.90625 Z M 12.46875 -6.90625 "/></g></g></g><g fill="#626263" fill-opacity="1"><g transform="translate(280.506646, 212.709566)"><g><path d="M 5.765625 -14.375 L 0.09375 -14.375 L 0.09375 -17.703125 L 15.53125 -17.703125 L 15.53125 -14.375 L 9.859375 -14.375 L 9.859375 0 L 5.765625 0 Z M 5.765625 -14.375 "/></g></g></g><g fill="#626263" fill-opacity="1"><g transform="translate(296.887099, 212.709566)"><g><path d="M 2.09375 -17.703125 L 6.203125 -17.703125 L 6.203125 0 L 2.09375 0 Z M 2.09375 -17.703125 "/></g></g></g><g fill="#626263" fill-opacity="1"><g transform="translate(305.937025, 212.709566)"><g><path d="M 10.671875 0.296875 C 8.835938 0.296875 7.179688 -0.0976562 5.703125 -0.890625 C 4.222656 -1.679688 3.066406 -2.769531 2.234375 -4.15625 C 1.398438 -5.550781 0.984375 -7.117188 0.984375 -8.859375 C 0.984375 -10.585938 1.398438 -12.148438 2.234375 -13.546875 C 3.066406 -14.941406 4.222656 -16.035156 5.703125 -16.828125 C 7.179688 -17.617188 8.835938 -18.015625 10.671875 -18.015625 C 12.515625 -18.015625 14.164062 -17.617188 15.625 -16.828125 C 17.09375 -16.035156 18.25 -14.941406 19.09375 -13.546875 C 19.9375 -12.148438 20.359375 -10.585938 20.359375 -8.859375 C 20.359375 -7.117188 19.9375 -5.550781 19.09375 -4.15625 C 18.25 -2.769531 17.09375 -1.679688 15.625 -0.890625 C 14.164062 -0.0976562 12.515625 0.296875 10.671875 0.296875 Z M 10.671875 -3.1875 C 11.722656 -3.1875 12.664062 -3.425781 13.5 -3.90625 C 14.34375 -4.382812 15.003906 -5.050781 15.484375 -5.90625 C 15.972656 -6.769531 16.21875 -7.753906 16.21875 -8.859375 C 16.21875 -9.953125 15.972656 -10.925781 15.484375 -11.78125 C 15.003906 -12.644531 14.34375 -13.316406 13.5 -13.796875 C 12.664062 -14.273438 11.722656 -14.515625 10.671875 -14.515625 C 9.628906 -14.515625 8.6875 -14.273438 7.84375 -13.796875 C 7 -13.316406 6.335938 -12.644531 5.859375 -11.78125 C 5.378906 -10.925781 5.140625 -9.953125 5.140625 -8.859375 C 5.140625 -7.753906 5.378906 -6.769531 5.859375 -5.90625 C 6.335938 -5.050781 7 -4.382812 7.84375 -3.90625 C 8.6875 -3.425781 9.628906 -3.1875 10.671875 -3.1875 Z M 10.671875 -3.1875 "/></g></g></g><g fill="#626263" fill-opacity="1"><g transform="translate(328.030235, 212.709566)"><g><path d="M 18.34375 -17.703125 L 18.34375 0 L 14.96875 0 L 6.140625 -10.75 L 6.140625 0 L 2.09375 0 L 2.09375 -17.703125 L 5.484375 -17.703125 L 14.296875 -6.953125 L 14.296875 -17.703125 Z M 18.34375 -17.703125 "/></g></g></g><g fill="#626263" fill-opacity="1"><g transform="translate(349.213451, 212.709566)"><g><path d="M 7.921875 0.296875 C 6.515625 0.296875 5.15625 0.109375 3.84375 -0.265625 C 2.539062 -0.640625 1.492188 -1.132812 0.703125 -1.75 L 2.09375 -4.828125 C 2.851562 -4.273438 3.753906 -3.828125 4.796875 -3.484375 C 5.847656 -3.148438 6.894531 -2.984375 7.9375 -2.984375 C 9.101562 -2.984375 9.960938 -3.15625 10.515625 -3.5 C 11.078125 -3.84375 11.359375 -4.300781 11.359375 -4.875 C 11.359375 -5.300781 11.191406 -5.648438 10.859375 -5.921875 C 10.535156 -6.203125 10.113281 -6.425781 9.59375 -6.59375 C 9.082031 -6.769531 8.390625 -6.957031 7.515625 -7.15625 C 6.160156 -7.476562 5.050781 -7.796875 4.1875 -8.109375 C 3.332031 -8.429688 2.597656 -8.945312 1.984375 -9.65625 C 1.367188 -10.363281 1.0625 -11.3125 1.0625 -12.5 C 1.0625 -13.53125 1.335938 -14.460938 1.890625 -15.296875 C 2.453125 -16.128906 3.289062 -16.789062 4.40625 -17.28125 C 5.53125 -17.769531 6.90625 -18.015625 8.53125 -18.015625 C 9.65625 -18.015625 10.753906 -17.878906 11.828125 -17.609375 C 12.910156 -17.335938 13.859375 -16.945312 14.671875 -16.4375 L 13.40625 -13.328125 C 11.769531 -14.253906 10.132812 -14.71875 8.5 -14.71875 C 7.351562 -14.71875 6.503906 -14.53125 5.953125 -14.15625 C 5.410156 -13.789062 5.140625 -13.304688 5.140625 -12.703125 C 5.140625 -12.085938 5.453125 -11.632812 6.078125 -11.34375 C 6.710938 -11.050781 7.679688 -10.757812 8.984375 -10.46875 C 10.328125 -10.15625 11.425781 -9.835938 12.28125 -9.515625 C 13.144531 -9.191406 13.882812 -8.679688 14.5 -7.984375 C 15.125 -7.296875 15.4375 -6.363281 15.4375 -5.1875 C 15.4375 -4.175781 15.148438 -3.25 14.578125 -2.40625 C 14.015625 -1.570312 13.164062 -0.910156 12.03125 -0.421875 C 10.90625 0.0546875 9.535156 0.296875 7.921875 0.296875 Z M 7.921875 0.296875 "/></g></g></g><path stroke-linecap="butt" transform="matrix(0.74999, -0.00377791, 0.00377791, 0.74999, 137.151924, 220.529047)" fill="none" stroke-linejoin="miter" d="M -0.00160579 2.497753 L 305.465816 2.499998 " stroke="#f68b20" stroke-width="5" stroke-opacity="1" stroke-miterlimit="4"/><g fill="#f68b20" fill-opacity="1"><g transform="translate(137.152831, 237.291577)"><g><path d="M 6.734375 -1.859375 L 2.71875 -1.859375 L 1.953125 0 L -0.109375 0 L 3.75 -8.671875 L 5.734375 -8.671875 L 9.609375 0 L 7.515625 0 Z M 6.109375 -3.375 L 4.734375 -6.703125 L 3.359375 -3.375 Z M 6.109375 -3.375 "/></g></g></g><g fill="#f68b20" fill-opacity="1"><g transform="translate(156.558621, 237.291577)"><g><path d="M 8.984375 -8.671875 L 8.984375 0 L 7.328125 0 L 3.015625 -5.265625 L 3.015625 0 L 1.03125 0 L 1.03125 -8.671875 L 2.6875 -8.671875 L 7 -3.40625 L 7 -8.671875 Z M 8.984375 -8.671875 "/></g></g></g><g fill="#f68b20" fill-opacity="1"><g transform="translate(176.484884, 237.291577)"><g><path d="M 1.03125 -8.671875 L 4.96875 -8.671875 C 5.90625 -8.671875 6.734375 -8.488281 7.453125 -8.125 C 8.179688 -7.769531 8.742188 -7.265625 9.140625 -6.609375 C 9.546875 -5.960938 9.75 -5.207031 9.75 -4.34375 C 9.75 -3.46875 9.546875 -2.703125 9.140625 -2.046875 C 8.742188 -1.398438 8.179688 -0.894531 7.453125 -0.53125 C 6.734375 -0.175781 5.90625 0 4.96875 0 L 1.03125 0 Z M 4.875 -1.640625 C 5.738281 -1.640625 6.425781 -1.878906 6.9375 -2.359375 C 7.457031 -2.847656 7.71875 -3.507812 7.71875 -4.34375 C 7.71875 -5.164062 7.457031 -5.816406 6.9375 -6.296875 C 6.425781 -6.785156 5.738281 -7.03125 4.875 -7.03125 L 3.03125 -7.03125 L 3.03125 -1.640625 Z M 4.875 -1.640625 "/></g></g></g><g fill="#f68b20" fill-opacity="1"><g transform="translate(196.63419, 237.291577)"><g/></g></g><g fill="#f68b20" fill-opacity="1"><g transform="translate(210.05465, 237.291577)"><g><path d="M 3.875 0.15625 C 3.1875 0.15625 2.519531 0.0625 1.875 -0.125 C 1.238281 -0.3125 0.726562 -0.554688 0.34375 -0.859375 L 1.03125 -2.359375 C 1.40625 -2.085938 1.847656 -1.867188 2.359375 -1.703125 C 2.867188 -1.546875 3.378906 -1.46875 3.890625 -1.46875 C 4.460938 -1.46875 4.882812 -1.550781 5.15625 -1.71875 C 5.425781 -1.882812 5.5625 -2.109375 5.5625 -2.390625 C 5.5625 -2.597656 5.476562 -2.769531 5.3125 -2.90625 C 5.15625 -3.039062 4.953125 -3.148438 4.703125 -3.234375 C 4.453125 -3.316406 4.113281 -3.40625 3.6875 -3.5 C 3.019531 -3.65625 2.472656 -3.8125 2.046875 -3.96875 C 1.628906 -4.132812 1.269531 -4.390625 0.96875 -4.734375 C 0.664062 -5.078125 0.515625 -5.539062 0.515625 -6.125 C 0.515625 -6.625 0.648438 -7.078125 0.921875 -7.484375 C 1.203125 -7.898438 1.613281 -8.226562 2.15625 -8.46875 C 2.707031 -8.707031 3.378906 -8.828125 4.171875 -8.828125 C 4.722656 -8.828125 5.265625 -8.757812 5.796875 -8.625 C 6.328125 -8.488281 6.789062 -8.296875 7.1875 -8.046875 L 6.5625 -6.53125 C 5.757812 -6.988281 4.957031 -7.21875 4.15625 -7.21875 C 3.601562 -7.21875 3.191406 -7.125 2.921875 -6.9375 C 2.648438 -6.757812 2.515625 -6.519531 2.515625 -6.21875 C 2.515625 -5.925781 2.664062 -5.707031 2.96875 -5.5625 C 3.28125 -5.414062 3.757812 -5.269531 4.40625 -5.125 C 5.0625 -4.96875 5.597656 -4.8125 6.015625 -4.65625 C 6.441406 -4.5 6.804688 -4.25 7.109375 -3.90625 C 7.410156 -3.570312 7.5625 -3.117188 7.5625 -2.546875 C 7.5625 -2.046875 7.421875 -1.585938 7.140625 -1.171875 C 6.867188 -0.765625 6.453125 -0.441406 5.890625 -0.203125 C 5.335938 0.0351562 4.664062 0.15625 3.875 0.15625 Z M 3.875 0.15625 "/></g></g></g><g fill="#f68b20" fill-opacity="1"><g transform="translate(227.874262, 237.291577)"><g><path d="M 5.234375 0.15625 C 4.328125 0.15625 3.507812 -0.0351562 2.78125 -0.421875 C 2.0625 -0.816406 1.5 -1.351562 1.09375 -2.03125 C 0.6875 -2.71875 0.484375 -3.488281 0.484375 -4.34375 C 0.484375 -5.1875 0.6875 -5.945312 1.09375 -6.625 C 1.5 -7.3125 2.0625 -7.847656 2.78125 -8.234375 C 3.507812 -8.628906 4.328125 -8.828125 5.234375 -8.828125 C 6.128906 -8.828125 6.9375 -8.628906 7.65625 -8.234375 C 8.375 -7.847656 8.9375 -7.3125 9.34375 -6.625 C 9.757812 -5.945312 9.96875 -5.1875 9.96875 -4.34375 C 9.96875 -3.488281 9.757812 -2.71875 9.34375 -2.03125 C 8.9375 -1.351562 8.375 -0.816406 7.65625 -0.421875 C 6.9375 -0.0351562 6.128906 0.15625 5.234375 0.15625 Z M 5.234375 -1.5625 C 5.742188 -1.5625 6.203125 -1.675781 6.609375 -1.90625 C 7.023438 -2.144531 7.347656 -2.472656 7.578125 -2.890625 C 7.816406 -3.316406 7.9375 -3.800781 7.9375 -4.34375 C 7.9375 -4.875 7.816406 -5.347656 7.578125 -5.765625 C 7.347656 -6.191406 7.023438 -6.519531 6.609375 -6.75 C 6.203125 -6.988281 5.742188 -7.109375 5.234375 -7.109375 C 4.710938 -7.109375 4.242188 -6.988281 3.828125 -6.75 C 3.421875 -6.519531 3.097656 -6.191406 2.859375 -5.765625 C 2.628906 -5.347656 2.515625 -4.875 2.515625 -4.34375 C 2.515625 -3.800781 2.628906 -3.316406 2.859375 -2.890625 C 3.097656 -2.472656 3.421875 -2.144531 3.828125 -1.90625 C 4.242188 -1.675781 4.710938 -1.5625 5.234375 -1.5625 Z M 5.234375 -1.5625 "/></g></g></g><g fill="#f68b20" fill-opacity="1"><g transform="translate(248.246622, 237.291577)"><g><path d="M 1.03125 -8.671875 L 3.03125 -8.671875 L 3.03125 -1.640625 L 7.390625 -1.640625 L 7.390625 0 L 1.03125 0 Z M 1.03125 -8.671875 "/></g></g></g><g fill="#f68b20" fill-opacity="1"><g transform="translate(265.644904, 237.291577)"><g><path d="M 4.875 0.15625 C 3.632812 0.15625 2.671875 -0.1875 1.984375 -0.875 C 1.296875 -1.5625 0.953125 -2.539062 0.953125 -3.8125 L 0.953125 -8.671875 L 2.96875 -8.671875 L 2.96875 -3.890625 C 2.96875 -2.335938 3.609375 -1.5625 4.890625 -1.5625 C 5.523438 -1.5625 6.003906 -1.75 6.328125 -2.125 C 6.660156 -2.5 6.828125 -3.085938 6.828125 -3.890625 L 6.828125 -8.671875 L 8.8125 -8.671875 L 8.8125 -3.8125 C 8.8125 -2.539062 8.460938 -1.5625 7.765625 -0.875 C 7.078125 -0.1875 6.113281 0.15625 4.875 0.15625 Z M 4.875 0.15625 "/></g></g></g><g fill="#f68b20" fill-opacity="1"><g transform="translate(285.323329, 237.291577)"><g><path d="M 2.828125 -7.03125 L 0.046875 -7.03125 L 0.046875 -8.671875 L 7.609375 -8.671875 L 7.609375 -7.03125 L 4.828125 -7.03125 L 4.828125 0 L 2.828125 0 Z M 2.828125 -7.03125 "/></g></g></g><g fill="#f68b20" fill-opacity="1"><g transform="translate(302.895105, 237.291577)"><g><path d="M 1.03125 -8.671875 L 3.03125 -8.671875 L 3.03125 0 L 1.03125 0 Z M 1.03125 -8.671875 "/></g></g></g><g fill="#f68b20" fill-opacity="1"><g transform="translate(316.873217, 237.291577)"><g><path d="M 5.234375 0.15625 C 4.328125 0.15625 3.507812 -0.0351562 2.78125 -0.421875 C 2.0625 -0.816406 1.5 -1.351562 1.09375 -2.03125 C 0.6875 -2.71875 0.484375 -3.488281 0.484375 -4.34375 C 0.484375 -5.1875 0.6875 -5.945312 1.09375 -6.625 C 1.5 -7.3125 2.0625 -7.847656 2.78125 -8.234375 C 3.507812 -8.628906 4.328125 -8.828125 5.234375 -8.828125 C 6.128906 -8.828125 6.9375 -8.628906 7.65625 -8.234375 C 8.375 -7.847656 8.9375 -7.3125 9.34375 -6.625 C 9.757812 -5.945312 9.96875 -5.1875 9.96875 -4.34375 C 9.96875 -3.488281 9.757812 -2.71875 9.34375 -2.03125 C 8.9375 -1.351562 8.375 -0.816406 7.65625 -0.421875 C 6.9375 -0.0351562 6.128906 0.15625 5.234375 0.15625 Z M 5.234375 -1.5625 C 5.742188 -1.5625 6.203125 -1.675781 6.609375 -1.90625 C 7.023438 -2.144531 7.347656 -2.472656 7.578125 -2.890625 C 7.816406 -3.316406 7.9375 -3.800781 7.9375 -4.34375 C 7.9375 -4.875 7.816406 -5.347656 7.578125 -5.765625 C 7.347656 -6.191406 7.023438 -6.519531 6.609375 -6.75 C 6.203125 -6.988281 5.742188 -7.109375 5.234375 -7.109375 C 4.710938 -7.109375 4.242188 -6.988281 3.828125 -6.75 C 3.421875 -6.519531 3.097656 -6.191406 2.859375 -5.765625 C 2.628906 -5.347656 2.515625 -4.875 2.515625 -4.34375 C 2.515625 -3.800781 2.628906 -3.316406 2.859375 -2.890625 C 3.097656 -2.472656 3.421875 -2.144531 3.828125 -1.90625 C 4.242188 -1.675781 4.710938 -1.5625 5.234375 -1.5625 Z M 5.234375 -1.5625 "/></g></g></g><g fill="#f68b20" fill-opacity="1"><g transform="translate(337.245585, 237.291577)"><g><path d="M 8.984375 -8.671875 L 8.984375 0 L 7.328125 0 L 3.015625 -5.265625 L 3.015625 0 L 1.03125 0 L 1.03125 -8.671875 L 2.6875 -8.671875 L 7 -3.40625 L 7 -8.671875 Z M 8.984375 -8.671875 "/></g></g></g><g fill="#f68b20" fill-opacity="1"><g transform="translate(357.171854, 237.291577)"><g><path d="M 3.875 0.15625 C 3.1875 0.15625 2.519531 0.0625 1.875 -0.125 C 1.238281 -0.3125 0.726562 -0.554688 0.34375 -0.859375 L 1.03125 -2.359375 C 1.40625 -2.085938 1.847656 -1.867188 2.359375 -1.703125 C 2.867188 -1.546875 3.378906 -1.46875 3.890625 -1.46875 C 4.460938 -1.46875 4.882812 -1.550781 5.15625 -1.71875 C 5.425781 -1.882812 5.5625 -2.109375 5.5625 -2.390625 C 5.5625 -2.597656 5.476562 -2.769531 5.3125 -2.90625 C 5.15625 -3.039062 4.953125 -3.148438 4.703125 -3.234375 C 4.453125 -3.316406 4.113281 -3.40625 3.6875 -3.5 C 3.019531 -3.65625 2.472656 -3.8125 2.046875 -3.96875 C 1.628906 -4.132812 1.269531 -4.390625 0.96875 -4.734375 C 0.664062 -5.078125 0.515625 -5.539062 0.515625 -6.125 C 0.515625 -6.625 0.648438 -7.078125 0.921875 -7.484375 C 1.203125 -7.898438 1.613281 -8.226562 2.15625 -8.46875 C 2.707031 -8.707031 3.378906 -8.828125 4.171875 -8.828125 C 4.722656 -8.828125 5.265625 -8.757812 5.796875 -8.625 C 6.328125 -8.488281 6.789062 -8.296875 7.1875 -8.046875 L 6.5625 -6.53125 C 5.757812 -6.988281 4.957031 -7.21875 4.15625 -7.21875 C 3.601562 -7.21875 3.191406 -7.125 2.921875 -6.9375 C 2.648438 -6.757812 2.515625 -6.519531 2.515625 -6.21875 C 2.515625 -5.925781 2.664062 -5.707031 2.96875 -5.5625 C 3.28125 -5.414062 3.757812 -5.269531 4.40625 -5.125 C 5.0625 -4.96875 5.597656 -4.8125 6.015625 -4.65625 C 6.441406 -4.5 6.804688 -4.25 7.109375 -3.90625 C 7.410156 -3.570312 7.5625 -3.117188 7.5625 -2.546875 C 7.5625 -2.046875 7.421875 -1.585938 7.140625 -1.171875 C 6.867188 -0.765625 6.453125 -0.441406 5.890625 -0.203125 C 5.335938 0.0351562 4.664062 0.15625 3.875 0.15625 Z M 3.875 0.15625 "/></g></g></g></svg>